<?xml version="1.0" ?><svg viewBox="0 0 64 64" xmlns="http://www.w3.org/2000/svg" fill="#FFFFFF"><title/><g id="Playlist"><path fill="#FFFFFF" d="M3,27.2085a1.9789,1.9789,0,0,0,2,0l16-9.2378a2,2,0,0,0,0-3.4644L5,5.269A2,2,0,0,0,2,7.0015V25.4766A1.9794,1.9794,0,0,0,3,27.2085ZM4,7.0015l16,9.2373L4,25.4766Z"/><path d="M60,12H27a2.002,2.002,0,0,0-2,2v4a2.002,2.002,0,0,0,2,2H60a2.002,2.002,0,0,0,2-2V14A2.002,2.002,0,0,0,60,12ZM27,18V14H60l.0015,4Z"/><path d="M60,32H4a2.002,2.002,0,0,0-2,2v4a2.002,2.002,0,0,0,2,2H60a2.002,2.002,0,0,0,2-2V34A2.002,2.002,0,0,0,60,32ZM4,38V34H60l.0015,4Z"/><path d="M60,51H4a2.002,2.002,0,0,0-2,2v4a2.002,2.002,0,0,0,2,2H60a2.002,2.002,0,0,0,2-2V53A2.002,2.002,0,0,0,60,51ZM4,57V53H60l.0015,4Z"/></g></svg>